<svg width="24" height="14" viewBox="0 0 24 14" fill="none" xmlns="http://www.w3.org/2000/svg">
<path d="M4 3.8998V2.86647C4 2.17758 4.40421 0.799805 6.02105 0.799805C7.63789 0.799805 16.8 0.799805 21.1789 0.799805C21.8526 0.799805 23.2 1.21314 23.2 2.86647C23.2 4.5198 23.2 9.06647 23.2 11.1331C23.2 11.822 22.7958 13.1998 21.1789 13.1998C19.5621 13.1998 10.4 13.1998 6.02105 13.1998C5.34737 13.1998 4 12.7865 4 11.1331L4 10.0998" stroke="#2F5FE3" stroke-linecap="round"/>
<path d="M4.5 1.5L12 8C12.5 8.5 13.8 9.2 15 8C16.2 6.8 20.5 3.16667 22.5 1.5" stroke="#2F5FE3"/>
<path d="M4.3999 12.6997L10.8999 7.19971" stroke="#2F5FE3"/>
<path d="M22.7 12.6997L16.2 7.19971" stroke="#2F5FE3"/>
<path d="M2.5 5.69971H5.5" stroke="#2F5FE3" stroke-linecap="round"/>
<path d="M0.899902 8.2998H5.4999" stroke="#2F5FE3" stroke-linecap="round"/>
</svg>
