<svg width="24" height="14" viewBox="0 0 24 14" fill="none" xmlns="http://www.w3.org/2000/svg">
<path d="M4 3.90005V2.86672C4 2.17783 4.40421 0.800049 6.02105 0.800049C7.63789 0.800049 16.8 0.800049 21.1789 0.800049C21.8526 0.800049 23.2 1.21338 23.2 2.86672C23.2 4.52005 23.2 9.06672 23.2 11.1334C23.2 11.8223 22.7958 13.2 21.1789 13.2C19.5621 13.2 10.4 13.2 6.02105 13.2C5.34737 13.2 4 12.7867 4 11.1334L4 10.1" stroke="white" stroke-linecap="round"/>
<path d="M4.5 1.5L12 8C12.5 8.5 13.8 9.2 15 8C16.2 6.8 20.5 3.16667 22.5 1.5" stroke="white"/>
<path d="M4.3999 12.7002L10.8999 7.2002" stroke="white"/>
<path d="M22.7 12.7002L16.2 7.2002" stroke="white"/>
<path d="M2.5 5.7002H5.5" stroke="white" stroke-linecap="round"/>
<path d="M0.899902 8.30005H5.4999" stroke="white" stroke-linecap="round"/>
</svg>
