<svg width="94" height="251" viewBox="0 0 94 251" fill="none" xmlns="http://www.w3.org/2000/svg">
<path d="M7.57507 0H32.2801C36.4981 0 39.8552 3.44321 39.8552 7.57507V29.0952C39.8552 33.3131 36.412 36.6702 32.2801 36.6702H25.0494L26.771 43.4706L19.8846 36.6702H7.57507C3.35714 36.6702 0 33.227 0 29.0952V7.57507C0 3.35713 3.35714 0 7.57507 0Z" fill="#2F5FE3" fill-opacity="0.2"/>
<path d="M28.6492 26.935C33.4563 22.1279 33.4563 14.334 28.6492 9.52692C23.8421 4.71981 16.0483 4.71981 11.2412 9.52691C6.43404 14.334 6.43404 22.1279 11.2412 26.935C16.0483 31.7421 23.8421 31.7421 28.6492 26.935Z" fill="#EFC003"/>
<path d="M18.6795 23.7577C18.3352 23.7577 17.9909 23.5855 17.8187 23.3273L12.9982 17.646C12.5678 17.1295 12.6539 16.4409 13.1704 16.0965C13.6869 15.6661 14.3755 15.7522 14.7198 16.2687L18.6795 20.917L25.2216 13.2559C25.652 12.7394 26.3407 12.7394 26.7711 13.0837C27.2876 13.5141 27.2876 14.2028 26.9433 14.6332L19.5403 23.3273C19.2821 23.5855 18.9378 23.7577 18.6795 23.7577Z" fill="white"/>
<path d="M49.0299 58.7435C49.116 59.1739 48.7717 59.5182 48.3413 59.5182H40.508C40.0776 59.5182 39.6472 59.1739 39.6472 58.7435L37.9256 43.249C37.8395 42.8186 38.1838 42.3882 38.6142 42.3882H46.4475C46.8779 42.3882 47.3083 42.8186 47.3083 43.249L49.0299 58.7435Z" fill="#263238"/>
<path opacity="0.5" d="M46.4475 43.077L48.2552 58.7436C48.3413 59.174 48.0831 59.5183 47.6527 59.5183H40.9384C40.508 59.5183 39.6472 59.2601 39.6472 58.8297L37.8395 43.077C37.7534 42.6466 38.5282 42.3022 38.9586 42.3022H45.6728C46.1032 42.3022 46.3615 42.6466 46.4475 43.077Z" fill="white"/>
<path d="M52.5592 57.1081C50.8375 60.4652 48.8577 63.9945 46.8778 67.1795C45.0702 69.9341 43.1764 73.033 40.6801 75.0128C40.4218 75.185 40.2497 75.2711 40.594 75.2711C41.3687 75.185 42.4017 75.7014 42.746 76.2179C41.7991 75.0989 41.3687 72.6886 40.9383 71.0531C40.1636 67.3517 39.6471 63.3059 39.0445 59.3462C38.7002 56.4195 34.4823 56.3334 33.9658 59.174C32.7607 66.4909 30.5226 86.978 43.0903 84.2234C51.354 81.641 58.2405 68.9011 61.9419 61.4982C64.4382 55.3865 55.7441 51.1685 52.5592 57.1081Z" fill="#2F5FE3"/>
<path d="M39.9054 48.2415L37.7534 48.758C36.8926 48.9302 36.29 49.5327 35.9457 50.3075L34.4823 54.0089C33.8797 55.4723 34.0519 57.1078 34.9988 58.4851L35.5153 59.2598C39.2167 58.5712 42.6599 55.128 42.6599 55.128L43.779 54.2672C44.7259 53.4924 44.9841 52.1152 44.2094 51.1683L42.4878 48.9302C41.8852 48.3276 40.8523 47.9833 39.9054 48.2415Z" fill="#FFB978"/>
<path d="M39.3888 61.3257C39.3888 61.3257 35.3431 60.9814 33.5354 59.9484L34.0519 56.5913L39.7332 57.8825L39.3888 61.3257Z" fill="#407BFF"/>
<path d="M39.3888 61.3257C39.3888 61.3257 35.3431 60.9814 33.5354 59.9484L34.0519 56.5913L39.7332 57.8825L39.3888 61.3257Z" fill="#407BFF"/>
<path d="M39.3888 61.3257C39.3888 61.3257 35.3431 60.9814 33.5354 59.9484L34.0519 56.5913L39.7332 57.8825L39.3888 61.3257Z" fill="#DEE7FF"/>
<path d="M47.4806 81.8992C47.9971 81.5549 48.4275 81.1245 48.8579 80.7802C49.8047 79.9194 50.5795 79.0586 51.3542 78.1978C52.9036 76.4762 54.1948 74.6685 55.4 72.8608C55.4861 72.6886 55.5721 72.6026 55.6582 72.4304C54.1948 70.0202 52.7315 68.4707 52.7315 68.4707C52.7315 68.4707 48.3414 73.9799 47.4806 81.8992Z" fill="#194ACF"/>
<path d="M51.9567 99.6315H81.0518C80.9657 96.2744 80.9657 93.0894 81.1379 89.9905C81.224 86.2029 81.4822 82.5876 81.8265 79.2304C82.1709 75.8733 82.5152 72.7744 82.9456 70.0198C83.0317 69.3312 83.1177 68.6426 83.2899 67.9539C84.495 60.0345 85.8723 55.214 85.8723 55.214C69.9474 47.5529 55.0555 54.6115 55.0555 54.6115C47.3083 65.5437 51.9567 99.6315 51.9567 99.6315Z" fill="#2F5FE3"/>
<path d="M58.4126 68.5568C58.4126 68.5568 66.5041 100.234 81.1378 89.9908C81.2239 86.2032 81.4821 82.5879 81.8264 79.2307C82.1708 75.8736 82.5151 72.7747 82.9455 70.0201C83.0316 69.3315 83.1176 68.6428 83.2898 67.9542C81.1378 65.1996 78.9858 63.478 78.9858 63.478C78.9858 63.478 74.94 70.8809 72.9602 76.9926C72.9602 76.9926 63.5774 64.6831 61.9419 64.4249C60.1342 64.0806 58.4126 68.5568 58.4126 68.5568Z" fill="#194ACF"/>
<path d="M38.7864 171.423C39.1307 171.853 39.5611 172.37 39.9054 172.8C41.9713 175.813 44.5537 179.342 47.3083 183.13C50.4933 187.606 54.1087 192.426 57.638 197.333C58.8431 199.055 60.1343 200.776 61.3394 202.412C65.0409 207.491 68.6562 212.483 71.9273 217.045C72.7881 218.251 73.5628 219.37 74.3375 220.489C80.1049 228.666 84.2368 235.036 84.7533 237.188C85.6141 238.049 88.9712 235.639 89.4016 234.348C89.4016 234.348 85.6141 220.919 77.6947 204.219C77.1782 203.014 76.5756 201.895 75.9731 200.69C72.1855 193.029 67.5372 184.765 62.0281 176.932C61.3394 175.899 60.6508 174.952 59.876 173.919C57.2936 170.476 54.6251 167.119 51.6984 163.934C52.9035 162.126 54.0226 160.318 55.1416 158.597C55.6581 157.736 56.1746 156.875 56.7771 156.014C58.4988 153.174 60.0482 150.419 61.5977 147.751C61.942 147.148 62.2863 146.546 62.6306 145.943C66.9346 137.938 70.1196 130.879 72.5299 124.939C72.702 124.595 72.7881 124.251 72.9603 123.906C77.6947 111.683 78.8998 104.624 78.8998 104.624L61.0812 101.009L59.3596 100.665L54.1087 99.6318C54.1087 99.6318 51.0098 108.756 47.3944 120.98C47.0501 122.013 46.7918 123.132 46.4475 124.251C45.0702 128.813 43.6929 133.72 42.4017 138.712C41.2827 142.93 40.1636 147.234 39.2168 151.366C39.1307 151.624 39.1307 151.883 39.0446 152.141C38.2699 155.584 37.5812 158.941 36.9787 162.04V162.126C35.9457 165.311 36.6343 168.84 38.7864 171.423Z" fill="#FFB978"/>
<path d="M93.7917 241.578L92.7588 242.181L91.7258 241.062L89.1434 244.763L80.2771 250.1C80.2771 250.1 78.039 249.498 81.5683 245.882C81.7405 245.71 81.9127 245.538 81.9987 245.28C83.6343 242.869 84.6672 237.36 84.6672 237.36L89.5738 234.434C89.5738 234.434 89.9181 234.606 90.4346 234.864C91.5537 235.639 93.7917 237.36 93.7917 241.578Z" fill="#989898"/>
<path d="M90.4346 234.95C89.4016 234.606 88.3686 239.512 86.8192 241.923C85.4419 243.988 83.5481 245.71 82.0848 245.366C83.7203 242.955 84.495 236.241 84.495 236.241L88.3686 233.917C88.3686 233.745 89.9181 234.606 90.4346 234.95Z" fill="#FFB978"/>
<path d="M56.8632 242.922C57.9822 243.869 60.3064 244.472 62.9749 244.127C62.9749 244.127 67.7093 232.765 71.9273 218.045C73.3906 212.88 74.854 207.285 75.973 201.69C78.2972 190.327 79.4162 178.706 77.5225 169.668C78.5554 165.966 79.5023 162.437 80.277 159.166C80.4492 158.391 80.7074 157.531 80.8796 156.756C83.5481 145.049 84.7532 135.666 85.0976 128.091V128.005C85.9584 108.379 80.8796 101.664 80.8796 101.664L59.0152 97.3604C59.0152 97.3604 59.1013 98.3072 59.1874 100.029C59.1874 100.545 59.2734 101.062 59.2734 101.664C59.5317 105.882 59.876 112.769 60.3064 120.774C60.3925 121.807 60.3925 122.926 60.4786 124.045C60.8229 130.76 61.1672 137.99 61.4255 144.963C61.5115 146.254 61.5115 147.545 61.5976 148.836C61.6837 151.935 61.8559 155.034 61.8559 157.875C61.8559 158.219 61.8559 158.477 61.8559 158.736C61.9419 161.232 61.9419 163.556 62.028 165.708C62.1141 169.496 62.1141 173.628 62.028 178.018C61.9419 186.023 61.7698 194.889 61.3394 203.497C60.6507 219.508 59.1874 234.831 56.8632 242.922Z" fill="#FFA654"/>
<path opacity="0.2" d="M82.9456 69.9341C82.5152 72.6886 82.1708 75.7875 81.8265 79.1447C80.5353 76.4762 78.8998 70.1923 80.9657 63.478L82.9456 69.9341Z" fill="black"/>
<path d="M53.1618 56.5913H55.3999C56.2607 56.5913 57.0355 57.0217 57.5519 57.7103L59.79 60.9814C60.7369 62.2726 60.9091 63.9081 60.3926 65.3715L60.0483 66.3184C56.3468 66.5766 52.1289 64.0803 52.1289 64.0803L50.8377 63.4777C49.7186 62.9613 49.2021 61.67 49.7186 60.6371L50.8377 58.0547C51.182 57.1078 52.1289 56.5913 53.1618 56.5913Z" fill="#FFB978"/>
<path d="M70.7222 49.6191C79.8468 49.6191 80.9658 57.1081 80.9658 57.1081L76.6618 55.3004L64.0941 63.7363L60.9952 55.3004L57.1216 55.9891C57.2076 55.903 62.8029 49.6191 70.7222 49.6191Z" fill="#407BFF"/>
<path d="M70.7222 49.6191C79.8468 49.6191 80.9658 57.1081 80.9658 57.1081L76.6618 55.3004L64.0941 63.7363L60.9952 55.3004L57.1216 55.9891C57.2076 55.903 62.8029 49.6191 70.7222 49.6191Z" fill="#DEE7FF"/>
<path d="M62.975 249.756H61.7698L61.4255 248.206L57.3797 250.014H47.0501C47.0501 250.014 45.4146 248.378 50.3211 247.087C50.5794 247.001 50.7516 246.915 51.0098 246.829C53.5922 245.624 57.3797 241.406 57.3797 241.406H63.061C63.061 241.406 63.2332 241.664 63.4914 242.267C64.094 243.558 65.127 246.14 62.975 249.756Z" fill="#989898"/>
<path d="M63.4915 242.266C62.7167 241.406 59.3596 245.107 56.8633 246.398C54.6252 247.517 52.1288 248.034 51.0098 246.915C53.5922 245.71 57.7241 240.287 57.7241 240.287H62.2863C62.2863 240.201 63.1471 241.75 63.4915 242.266Z" fill="#FFA654"/>
<path d="M51.6984 97.3076H81.0518L81.8265 101.095C81.8265 101.095 92.9309 116.934 84.5811 154.981C84.5811 154.981 60.0482 154.293 37.8395 149.472C37.8395 149.472 46.2754 112.974 51.5263 100.493L51.6984 97.3076Z" fill="#282828"/>
<path d="M72.2717 100.492H82.1709L81.5683 97.7378H72.2717V100.492Z" fill="#407BFF"/>
<path d="M54.3669 97.7378H51.4402L51.182 100.492H54.3669V97.7378Z" fill="#407BFF"/>
<path d="M55.3998 97.7378H71.3247V100.578H55.3998V97.7378Z" fill="#407BFF"/>
<path d="M72.2717 100.492H82.1709L81.5683 97.7378H72.2717V100.492Z" fill="#DEE7FF"/>
<path d="M54.3669 97.7378H51.4402L51.182 100.492H54.3669V97.7378Z" fill="#DEE7FF"/>
<path d="M55.3998 97.7378H71.3247V100.578H55.3998V97.7378Z" fill="#DEE7FF"/>
<path d="M64.2662 100.751H59.8761C59.6179 100.751 59.3596 100.492 59.3596 100.234V97.996C59.3596 97.7377 59.6179 97.4795 59.8761 97.4795H64.2662C64.5245 97.4795 64.7827 97.7377 64.7827 97.996V100.234C64.6966 100.492 64.5245 100.751 64.2662 100.751Z" fill="white"/>
<path d="M62.6306 52.9758C62.6306 52.9758 64.5244 63.1333 64.5244 63.2193L76.3174 52.9758C74.1654 50.7377 74.4236 45.5729 75.2844 41.2688C75.5427 39.8916 75.8009 38.6864 76.1452 37.5674L67.1929 44.7121C67.4511 46.2615 67.6233 47.897 67.1929 49.2743C66.6764 50.9098 65.3852 52.2871 62.6306 52.9758Z" fill="#FFB978"/>
<path d="M67.1929 49.2745C73.2185 49.0162 75.2845 41.1829 75.2845 41.1829C75.5427 39.8056 75.8009 38.6005 76.1453 37.4814L67.1929 44.6261C67.4512 46.2616 67.6233 47.8972 67.1929 49.2745Z" fill="#CE7A63"/>
<path d="M56.9492 28.4431C56.9492 28.4431 53.506 27.4963 54.2808 25.086C55.0555 22.6758 56.2606 22.5897 56.2606 22.5897C56.2606 22.5897 54.1947 19.6629 55.572 16.478C56.9492 13.2069 60.6507 14.1538 60.6507 14.1538C60.6507 14.1538 60.3064 10.6245 63.6635 9.7637C66.9346 8.81682 68.6562 11.8296 68.6562 11.8296C68.6562 11.8296 70.636 8.64466 74.0792 9.16114C77.5225 9.67763 78.6415 14.2399 78.6415 14.2399C78.6415 14.2399 81.6543 12.8626 83.462 16.0476C85.3558 19.2325 83.462 21.9871 83.462 21.9871C83.462 21.9871 85.5279 20.782 86.5609 24.1391C87.5939 27.4963 84.2367 30.8534 84.2367 30.8534C84.2367 30.8534 86.2166 30.9395 85.4418 33.5219C84.6671 36.1904 81.5682 36.4486 81.5682 36.4486C81.5682 36.4486 82.8594 36.9651 80.7074 39.2893C78.5554 41.6134 70.8082 39.2893 70.8082 39.2893L56.9492 28.4431Z" fill="#282828"/>
<path d="M65.5571 22.1591C58.4985 23.1921 56.6909 27.3239 57.2934 34.7268C57.9821 43.9374 60.9088 50.1352 69.5168 46.9502C81.1377 42.4741 77.3501 20.4375 65.5571 22.1591Z" fill="#FFB978"/>
<path d="M75.026 33.0057C75.026 33.0057 70.8941 27.6687 70.7219 23.1065C70.7219 23.1065 55.83 19.405 57.2073 33.7804C57.2073 33.7804 54.0224 21.2988 66.1597 19.2328C78.297 17.1669 80.8794 35.0716 75.2842 41.2694C75.3703 41.2694 77.6084 36.3628 75.026 33.0057Z" fill="#282828"/>
<path d="M74.0792 34.6411C73.9931 33.5221 74.8539 31.37 77.006 31.284C79.244 31.1979 80.9657 35.588 75.6287 37.4817C74.94 37.74 74.3375 37.0514 74.0792 34.6411Z" fill="#FFB978"/>
<path d="M77.4364 30.1646C74.9401 21.4705 61.1672 15.2727 57.2075 25.9467C57.2075 25.9467 57.8962 22.073 61.1672 19.0602C61.1672 19.0602 74.0793 14.0676 77.7808 28.9595L77.4364 30.1646Z" fill="#EFC003"/>
<path d="M79.2443 60.6369C77.1784 67.4372 75.5428 74.7541 72.3579 81.124C72.53 80.9518 73.0465 80.6075 73.6491 80.5214C73.8212 80.5214 73.9934 80.4354 74.1655 80.4354C74.4238 80.4354 74.682 80.4353 74.7681 80.5214C75.0264 80.6075 74.9403 80.6936 74.7681 80.6075C72.8743 79.4885 71.2388 77.2504 69.6894 75.2705C67.3652 72.1716 65.041 68.6423 62.889 65.2852C61.2535 62.7889 57.4659 64.5966 58.2407 67.4372C60.4788 74.3236 66.5905 91.798 76.1454 89.5599C79.8468 88.3547 81.3963 84.7394 83.0318 81.6405C85.7864 75.7009 87.6802 69.6753 89.2296 63.3914C90.693 56.5911 81.3102 54.0948 79.2443 60.6369Z" fill="#2F5FE3"/>
<path d="M60.909 62.1865C60.909 62.1865 57.638 64.5107 56.605 66.4045L58.757 68.9869L63.061 65.0272L60.909 62.1865Z" fill="#407BFF"/>
<path d="M60.909 62.1865C60.909 62.1865 57.638 64.5107 56.605 66.4045L58.757 68.9869L63.061 65.0272L60.909 62.1865Z" fill="#407BFF"/>
<path d="M60.909 62.1865C60.909 62.1865 57.638 64.5107 56.605 66.4045L58.757 68.9869L63.061 65.0272L60.909 62.1865Z" fill="#DEE7FF"/>
<path d="M85.7863 55.2144C88.713 56.936 90.865 58.6576 89.1434 63.4781C87.0775 69.2455 78.1251 65.544 78.1251 65.544C78.1251 65.544 78.2112 60.9817 80.0189 58.7437C81.8266 56.4195 85.7863 55.2144 85.7863 55.2144Z" fill="#2F5FE3"/>
</svg>
